<svg xmlns="http://www.w3.org/2000/svg" width="320" height="320" viewBox="0 0 320 320">
  <g fill="none" stroke="#2c4a37" stroke-opacity="0.34" stroke-width="1.1" stroke-linecap="round" stroke-linejoin="round">
    <!-- sprig top-left -->
    <g transform="translate(52,70) rotate(-16)">
      <path d="M0,0 C 5,-20 5,-42 0,-64"/>
      <path d="M0,-14 C 11,-18 20,-13 22,-2 C 13,-5 5,-9 0,-14 Z"/>
      <path d="M0,-28 C -11,-32 -20,-27 -22,-16 C -13,-19 -5,-23 0,-28 Z"/>
      <path d="M0,-44 C 10,-48 18,-43 20,-33 C 12,-36 4,-40 0,-44 Z"/>
    </g>
    <!-- sprig top-right, smaller -->
    <g transform="translate(232,54) rotate(28) scale(0.82)">
      <path d="M0,0 C 5,-20 5,-42 0,-64"/>
      <path d="M0,-14 C 11,-18 20,-13 22,-2 C 13,-5 5,-9 0,-14 Z"/>
      <path d="M0,-30 C -11,-34 -20,-29 -22,-18 C -13,-21 -5,-25 0,-30 Z"/>
      <path d="M0,-46 C 10,-50 18,-45 20,-35 C 12,-38 4,-42 0,-46 Z"/>
    </g>
    <!-- sprig bottom-centre, pointing down -->
    <g transform="translate(150,214) rotate(168) scale(0.92)">
      <path d="M0,0 C 5,-20 5,-42 0,-64"/>
      <path d="M0,-16 C 11,-20 20,-15 22,-4 C 13,-7 5,-11 0,-16 Z"/>
      <path d="M0,-32 C -11,-36 -20,-31 -22,-20 C -13,-23 -5,-27 0,-32 Z"/>
      <path d="M0,-48 C 10,-52 18,-47 20,-37 C 12,-40 4,-44 0,-48 Z"/>
    </g>
    <!-- small berry cluster bottom-left -->
    <g transform="translate(58,246)">
      <circle cx="0" cy="0" r="3.4"/>
      <circle cx="11" cy="5" r="3.4"/>
      <circle cx="4" cy="12" r="3.4"/>
      <path d="M0,0 C -6,-8 -8,-16 -6,-24"/>
    </g>
    <!-- single arc leaf top-centre -->
    <g transform="translate(158,40) rotate(-4)">
      <path d="M0,0 C 14,4 24,16 26,32 C 12,28 2,16 0,0 Z"/>
    </g>
    <!-- berry cluster top-right corner -->
    <g transform="translate(280,150)">
      <circle cx="0" cy="0" r="3"/>
      <circle cx="-10" cy="6" r="3"/>
      <circle cx="-3" cy="13" r="3"/>
    </g>
    <!-- sprig mid-right, pointing up-left -->
    <g transform="translate(258,238) rotate(-128) scale(0.7)">
      <path d="M0,0 C 5,-20 5,-42 0,-64"/>
      <path d="M0,-16 C 11,-20 20,-15 22,-4 C 13,-7 5,-11 0,-16 Z"/>
      <path d="M0,-32 C -11,-36 -20,-31 -22,-20 C -13,-23 -5,-27 0,-32 Z"/>
    </g>
  </g>
</svg>
